<mxfile host="app.diagrams.net" modified="2023-08-10T10:39:45.055Z" agent="Mozilla/5.0 (X11; Linux x86_64) AppleWebKit/537.36 (KHTML, like Gecko) Chrome/113.0.0.0 Safari/537.36" version="21.6.5" etag="kQF8DCkOiOygczIE7DQP" type="github">
  <diagram name="第 1 页" id="TCVZmoWhHAe_Z5b6Ax71">
    <mxGraphModel>
      <root>
        <mxCell id="0" />
        <mxCell id="1" parent="0" />
      </root>
    </mxGraphModel>
  </diagram>
</mxfile>
